<svg xmlns="http://www.w3.org/2000/svg" width="22" height="18" fill="none" viewBox="0 0 22 18">
  <path fill="#0C8BFF" fill-rule="evenodd" d="m2.579 8.216.81 6.516c.036.288.28.504.571.504h14.69a.574.574 0 0 0 .57-.497l.899-6.523H2.579Zm-.303-1.842c-.947 0-1.68.83-1.563 1.769l.848 6.816a2.418 2.418 0 0 0 2.399 2.12h14.69a2.418 2.418 0 0 0 2.396-2.088l.94-6.828a1.575 1.575 0 0 0-1.56-1.79H2.275Z" clip-rule="evenodd"/>
  <path fill="#0C8BFF" fill-rule="evenodd" d="M10.464 2.352c-.686.383-.977.85-1.014 1.195l-.123 1.127-1.078-.35c-.956-.31-1.571-.293-1.958-.177-.366.11-.627.338-.83.679-.453.759-.533 1.924-.533 2.87H3.086c0-.917.05-2.569.793-3.814.394-.662.998-1.234 1.882-1.5.637-.191 1.36-.205 2.17-.045.353-.673.958-1.216 1.634-1.594 1.009-.564 2.31-.848 3.67-.707 2.797.29 5.694 2.348 7.022 7.11l-1.774.495c-1.162-4.164-3.52-5.574-5.438-5.773-.998-.103-1.917.112-2.581.484Z" clip-rule="evenodd"/>
</svg>
