<svg xmlns="http://www.w3.org/2000/svg" width="48" height="48" fill="none" viewBox="0 0 48 48">
  <path fill="#3B3C45" d="m47.947 12.504-3.245 14.71a7.535 7.535 0 0 1-2.612 4.227 7.49 7.49 0 0 1-4.69 1.656 1.875 1.875 0 0 1 0-3.75 3.714 3.714 0 0 0 3.641-2.941l3.245-14.71a1.875 1.875 0 1 1 3.66.808ZM42.929 42.47c0 3.05-2.48 5.53-5.53 5.53-3.05 0-5.53-2.48-5.53-5.53 0-.623.105-1.222.296-1.781h-8.09c.19.56.296 1.158.296 1.78A5.537 5.537 0 0 1 18.841 48a5.536 5.536 0 0 1-5.531-5.53c0-.623.105-1.222.296-1.781h-.765a5.63 5.63 0 0 1-5.624-5.624c0-.016.002-.031.003-.047 0-.016-.003-.03-.003-.047a5.631 5.631 0 0 1 3.308-5.123L8.297 9.375a6.497 6.497 0 0 0-6.422-5.617 1.875 1.875 0 0 1 0-3.749c5.116 0 9.476 3.826 10.142 8.898l.004.041 2.22 20.4h13.785a1.875 1.875 0 0 1 0 3.749H12.841c-1.033 0-1.874.84-1.874 1.874 0 .016-.002.031-.003.047 0 .016.003.031.003.047 0 1.034.84 1.875 1.874 1.875H37.4c3.05 0 5.53 2.48 5.53 5.53ZM18.84 40.689a1.782 1.782 0 0 0 0 3.562c.982 0 1.781-.799 1.781-1.781 0-.982-.799-1.781-1.78-1.781Zm20.34 1.78c0-.981-.799-1.78-1.78-1.78-.983 0-1.782.799-1.782 1.78 0 .983.8 1.782 1.781 1.782.982 0 1.781-.8 1.781-1.781ZM15.763 11.953a1.875 1.875 0 0 1 .132-2.647L24.631 1.4a5.289 5.289 0 0 1 7.165 0l8.736 7.906a1.875 1.875 0 0 1-2.29 2.953v5.34a5.286 5.286 0 0 1-5.277 5.282h-9.597a5.286 5.286 0 0 1-5.277-5.282v-5.28a1.875 1.875 0 0 1-2.328-.366Zm6.07-2.966c.003.039.007.077.007.115v8.497c0 .845.685 1.533 1.528 1.533h9.597c.843 0 1.528-.688 1.528-1.533V9.1c0-.066.004-.131.01-.195l-5.226-4.73-.007-.007a1.559 1.559 0 0 0-2.113 0l-.007.007-5.316 4.81Z"/>
  <mask id="a" width="48" height="48" x="0" y="0" maskUnits="userSpaceOnUse" style="mask-type:alpha">
    <path fill="#3B3C45" d="m47.947 12.504-3.245 14.71a7.535 7.535 0 0 1-2.612 4.227 7.49 7.49 0 0 1-4.69 1.656 1.875 1.875 0 0 1 0-3.75 3.714 3.714 0 0 0 3.641-2.941l3.245-14.71a1.875 1.875 0 1 1 3.66.808ZM42.929 42.47c0 3.05-2.48 5.53-5.53 5.53-3.05 0-5.53-2.48-5.53-5.53 0-.623.105-1.222.296-1.781h-8.09c.19.56.296 1.158.296 1.78A5.537 5.537 0 0 1 18.841 48a5.536 5.536 0 0 1-5.531-5.53c0-.623.105-1.222.296-1.781h-.765a5.63 5.63 0 0 1-5.624-5.624c0-.016.002-.031.003-.047 0-.016-.003-.03-.003-.047a5.631 5.631 0 0 1 3.308-5.123L8.297 9.375a6.497 6.497 0 0 0-6.422-5.617 1.875 1.875 0 0 1 0-3.749c5.116 0 9.476 3.826 10.142 8.898l.004.041 2.22 20.4h13.785a1.875 1.875 0 0 1 0 3.749H12.841c-1.033 0-1.874.84-1.874 1.874 0 .016-.002.031-.003.047 0 .016.003.031.003.047 0 1.034.84 1.875 1.874 1.875H37.4c3.05 0 5.53 2.48 5.53 5.53ZM18.84 40.689a1.782 1.782 0 0 0 0 3.562c.982 0 1.781-.799 1.781-1.781 0-.982-.799-1.781-1.78-1.781Zm20.34 1.78c0-.981-.799-1.78-1.78-1.78-.983 0-1.782.799-1.782 1.78 0 .983.8 1.782 1.781 1.782.982 0 1.781-.8 1.781-1.781ZM15.763 11.953a1.875 1.875 0 0 1 .132-2.647L24.631 1.4a5.289 5.289 0 0 1 7.165 0l8.736 7.906a1.875 1.875 0 0 1-2.29 2.953v5.34a5.286 5.286 0 0 1-5.277 5.282h-9.597a5.286 5.286 0 0 1-5.277-5.282v-5.28a1.875 1.875 0 0 1-2.328-.366Zm6.07-2.966c.003.039.007.077.007.115v8.497c0 .845.685 1.533 1.528 1.533h9.597c.843 0 1.528-.688 1.528-1.533V9.1c0-.066.004-.131.01-.195l-5.226-4.73-.007-.007a1.559 1.559 0 0 0-2.113 0l-.007.007-5.316 4.81Z"/>
  </mask>
  <g mask="url(#a)">
    <path fill="#F7A804" d="M15-8h26v32H15z"/>
  </g>
</svg>
