<svg xmlns="http://www.w3.org/2000/svg" width="48" height="48" fill="none" viewBox="0 0 48 48">
  <path fill="#3B3C45" d="M39.553 17.76 24 4.868 8.448 17.76v6.785H4.7v-3.678L2.392 22.78 0 19.895 24 0l24 19.895-2.391 2.886-2.308-1.914v3.678h-3.748V17.76ZM13.694 47.968h8.526v-3.747h-4.778v-5.247h4.778v-3.748h-4.778V31.48h4.778v-3.75h-8.526v20.237Zm24.36-16.49h3.092v16.49h3.748v-16.49h3.092v-3.747h-9.932v3.747ZM8.067 38.422l3.255 9.547h-3.96l-3.066-8.994h-.533v8.995H.015V27.73h5.622c3.1 0 5.621 2.522 5.621 5.621a5.63 5.63 0 0 1-3.191 5.07Zm-4.304-3.195h1.874c1.033 0 1.873-.84 1.873-1.874 0-1.033-.84-1.873-1.873-1.873H3.763v3.747Zm28.201 1.954-3.391-9.34-.076.028v-.137H24.75v20.237h3.747v-9.355l3.392 9.34.075-.028v.044h3.748V27.73h-3.748v9.449Z"/>
  <mask id="a" width="49" height="48" x="0" y="0" maskUnits="userSpaceOnUse" style="mask-type:alpha">
    <path fill="#3B3C45" d="M39.553 17.76 24 4.868 8.448 17.76v6.785H4.7v-3.678L2.392 22.78 0 19.895 24 0l24 19.895-2.391 2.886-2.308-1.914v3.678h-3.748V17.76ZM13.694 47.968h8.526v-3.747h-4.778v-5.247h4.778v-3.748h-4.778V31.48h4.778v-3.75h-8.526v20.237Zm24.36-16.49h3.092v16.49h3.748v-16.49h3.092v-3.747h-9.932v3.747ZM8.067 38.422l3.255 9.547h-3.96l-3.066-8.994h-.533v8.995H.015V27.73h5.622c3.1 0 5.621 2.522 5.621 5.621a5.63 5.63 0 0 1-3.191 5.07Zm-4.304-3.195h1.874c1.033 0 1.873-.84 1.873-1.874 0-1.033-.84-1.873-1.873-1.873H3.763v3.747Zm28.201 1.954-3.391-9.34-.076.028v-.137H24.75v20.237h3.747v-9.355l3.392 9.34.075-.028v.044h3.748V27.73h-3.748v9.449Z"/>
  </mask>
  <g mask="url(#a)">
    <path fill="#F7A804" d="M-3.6 25.2h54.001v25.2H-3.6z"/>
  </g>
</svg>
