<svg xmlns="http://www.w3.org/2000/svg" width="48" height="48" fill="none" viewBox="0 0 48 48">
  <path fill="#F7A804" d="M35 22c-7.168 0-13 5.832-13 13s5.832 13 13 13 13-5.832 13-13-5.832-13-13-13Zm-.25 11.5h.5A3.754 3.754 0 0 1 39 37.25c0 1.626-1.048 3.002-2.5 3.52v.73a1.5 1.5 0 0 1-3 0V41h-1a1.5 1.5 0 0 1 0-3h2.75a.75.75 0 0 0 0-1.5h-.5A3.754 3.754 0 0 1 31 32.75c0-1.626 1.048-3.002 2.5-3.52v-.73a1.5 1.5 0 0 1 3 0v.5h1a1.5 1.5 0 0 1 0 3h-2.75a.75.75 0 0 0 0 1.5Z"/>
  <path fill="#3B3C45" d="M34 11.916V4a2 2 0 1 0-4 0v4.004L22.398.57a1.996 1.996 0 0 0-2.796 0L.878 18.874A3.046 3.046 0 0 0 0 21c0 1.654 1.346 3 3 3h3v11c0 2.758 2.244 5 5 5h5a2 2 0 1 0 0-4h-5c-.552 0-1-.45-1-1V22a2 2 0 0 0-2-2H5.446L21 4.796l13.102 12.812a2 2 0 1 0 2.796-2.86L34 11.916Z"/>
</svg>
