<svg xmlns="http://www.w3.org/2000/svg" width="117" height="29" fill="none" viewBox="0 0 117 29">
  <path fill="#F9F9F9" d="M110.61 0H94.92a6.39 6.39 0 0 0-6.39 6.39v15.69a6.39 6.39 0 0 0 6.39 6.39h15.69a6.39 6.39 0 0 0 6.39-6.39V6.39A6.39 6.39 0 0 0 110.61 0Z"/>
  <path fill="#646464" d="M99.44 12.315h-2.278v6.672h2.278v-6.672Zm-.383-3.113a1.439 1.439 0 0 0-1.24-.11c-.162.06-.308.15-.43.262-.123.112-.22.245-.287.391a1.102 1.102 0 0 0 .129 1.126c.146.196.352.348.594.438.242.09.507.113.763.066s.49-.162.674-.33a1.17 1.17 0 0 0 .36-.614c.05-.233.024-.474-.077-.692-.1-.219-.27-.406-.486-.537Zm4.04 3.113h-2.195L100.894 19h2.278v-3.301c0-.869.183-1.71 1.367-1.71 1.185 0 1.185 1 1.185 1.772v3.225h2.278v-3.66c0-1.798-.463-3.177-2.741-3.177a2.6 2.6 0 0 0-1.246.266c-.381.19-.699.47-.918.81v-.91Z"/>
  <path fill="#F9F9F9" d="M24.912 0H3.559A3.562 3.562 0 0 0 0 3.559v21.353a3.562 3.562 0 0 0 3.559 3.559h21.353a3.562 3.562 0 0 0 3.559-3.56V3.56A3.562 3.562 0 0 0 24.91 0Z"/>
  <path fill="#646464" fill-rule="evenodd" d="M18 12.615h-2.333V10.77c0-.51.418-.461.933-.461h.933V8h-1.866c-.743 0-1.455.292-1.98.811a2.754 2.754 0 0 0-.82 1.958v1.846H11v2.308h1.867V20h2.8v-5.077h1.4L18 12.615Z" clip-rule="evenodd"/>
  <path fill="#F9F9F9" d="M72.469 24.516c0 1.05-.41 2.055-1.14 2.796a3.856 3.856 0 0 1-2.75 1.159h-20.22a3.856 3.856 0 0 1-2.75-1.159 3.988 3.988 0 0 1-1.14-2.796V3.954c0-1.048.41-2.054 1.14-2.796A3.856 3.856 0 0 1 48.358 0H68.58a3.86 3.86 0 0 1 2.75 1.158 3.988 3.988 0 0 1 1.139 2.796v20.562Z"/>
  <path fill="#646464" d="M63.877 11.004c-.398.185-.901.36-1.352.417.459-.286 1.187-.882 1.352-1.421-.429.265-1.204.548-1.71.65-.404-.45-.98-.65-1.618-.65-1.226 0-2.081 1.092-2.081 2.368v.948c-1.803 0-3.561-1.444-4.655-2.842a2.37 2.37 0 0 0-.3 1.163c0 .862.752 1.737 1.349 2.152-.364-.011-1.053-.303-1.352-.473v.027c0 1.121.748 1.882 1.763 2.094-.185.054-.411.247-1.28.247.282.917 1.7 1.401 2.672 1.421-.76.62-2.115.948-3.155.948-.18 0-.278.01-.451-.011.982.653 2.353.958 3.606.958 4.082 0 6.31-3.277 6.31-6.333 0-.1-.003-.437-.008-.535.437-.323.613-.662.91-1.128Z"/>
</svg>
