<svg xmlns="http://www.w3.org/2000/svg" width="116" height="19" fill="none" viewBox="0 0 116 19">
  <path fill="#FFCA56" d="M20.27 7.158a.59.59 0 0 0-.48-.394l-6.292-.89L10.683.323A.596.596 0 0 0 10.15 0a.596.596 0 0 0-.533.323l-2.815 5.55-6.293.89a.59.59 0 0 0-.48.395c-.07.21-.011.44.15.593l4.554 4.321-1.075 6.101a.572.572 0 0 0 .237.567.606.606 0 0 0 .626.044l5.629-2.881 5.628 2.88c.2.103.444.086.627-.044a.572.572 0 0 0 .236-.566l-1.075-6.1L20.12 7.75a.568.568 0 0 0 .15-.593Zm23.926 0a.59.59 0 0 0-.48-.394l-6.293-.89L34.608.323A.596.596 0 0 0 34.075 0a.596.596 0 0 0-.533.323l-2.815 5.55-6.293.89a.59.59 0 0 0-.48.395c-.07.21-.011.44.15.593l4.554 4.321-1.075 6.101a.572.572 0 0 0 .237.567.606.606 0 0 0 .626.044l5.629-2.881 5.628 2.88a.607.607 0 0 0 .627-.044.572.572 0 0 0 .236-.566l-1.075-6.1 4.554-4.322a.568.568 0 0 0 .15-.593Zm23.924 0a.59.59 0 0 0-.48-.394l-6.292-.89L58.533.323A.596.596 0 0 0 58 0a.596.596 0 0 0-.533.323l-2.815 5.55-6.293.89a.59.59 0 0 0-.48.395c-.07.21-.011.44.15.593l4.554 4.321-1.075 6.101a.572.572 0 0 0 .237.567.606.606 0 0 0 .626.044L58 15.902l5.629 2.88c.2.103.443.086.626-.044a.572.572 0 0 0 .237-.566l-1.076-6.1L67.97 7.75a.568.568 0 0 0 .15-.593Zm23.926 0a.59.59 0 0 0-.48-.394l-6.293-.89L82.458.323A.596.596 0 0 0 81.925 0a.597.597 0 0 0-.533.323l-2.815 5.55-6.293.89a.59.59 0 0 0-.48.395c-.07.21-.011.44.15.593l4.554 4.321-1.075 6.101a.572.572 0 0 0 .237.567.606.606 0 0 0 .626.044l5.629-2.881 5.629 2.88c.2.103.443.086.626-.044a.572.572 0 0 0 .236-.566l-1.075-6.1 4.554-4.322a.568.568 0 0 0 .15-.593Zm23.925 0a.59.59 0 0 0-.48-.394l-6.293-.89-2.815-5.551A.596.596 0 0 0 105.85 0a.596.596 0 0 0-.533.323l-2.815 5.55-6.293.89a.59.59 0 0 0-.48.395c-.07.21-.011.44.15.593l4.554 4.321-1.075 6.101a.572.572 0 0 0 .237.567.606.606 0 0 0 .626.044l5.629-2.881 5.628 2.88a.61.61 0 0 0 .627-.044.57.57 0 0 0 .236-.566l-1.075-6.1 4.554-4.322a.569.569 0 0 0 .151-.593Z"/>
</svg>
