<svg xmlns="http://www.w3.org/2000/svg" width="219" height="408" fill="none" viewBox="0 0 219 408">
  <g clip-path="url(#a)">
    <path fill="#F4F4F4" d="M218.978 104.188h-2.403V38.196a38.242 38.242 0 0 0-11.16-27.009A38.055 38.055 0 0 0 178.473 0H38.998a38.055 38.055 0 0 0-26.943 11.187A38.244 38.244 0 0 0 .895 38.196v362.045a38.242 38.242 0 0 0 11.16 27.008 38.052 38.052 0 0 0 26.943 11.188h139.475a38.057 38.057 0 0 0 26.942-11.188 38.244 38.244 0 0 0 11.159-27.008V151.163h2.403l.001-46.975Z"/>
    <path fill="#fff" d="M180.01 9.934h-18.205a13.579 13.579 0 0 1-1.298 12.678 13.52 13.52 0 0 1-4.863 4.4 13.495 13.495 0 0 1-6.357 1.591H69.384c-2.217 0-4.4-.546-6.356-1.591a13.529 13.529 0 0 1-4.864-4.401 13.572 13.572 0 0 1-1.297-12.677H39.863a28.419 28.419 0 0 0-20.12 8.354 28.56 28.56 0 0 0-8.334 20.17v361.519c0 7.565 2.997 14.82 8.334 20.17a28.42 28.42 0 0 0 20.12 8.354H180.01a28.42 28.42 0 0 0 20.12-8.354 28.563 28.563 0 0 0 8.334-20.17V38.457a28.56 28.56 0 0 0-8.334-20.169 28.419 28.419 0 0 0-20.12-8.354Z"/>
    <path fill="#3F3D56" d="M109.936 223.779a65.91 65.91 0 0 1-36.682-11.155 66.155 66.155 0 0 1-24.318-29.704 66.34 66.34 0 0 1-3.757-38.242 66.236 66.236 0 0 1 18.07-33.889 65.973 65.973 0 0 1 33.806-18.115 65.877 65.877 0 0 1 38.148 3.767 66.064 66.064 0 0 1 29.631 24.378 66.301 66.301 0 0 1 11.127 36.772 66.347 66.347 0 0 1-19.36 46.78 66.02 66.02 0 0 1-46.665 19.408Zm0-131.116a64.653 64.653 0 0 0-35.984 10.943 64.89 64.89 0 0 0-23.854 29.138 65.075 65.075 0 0 0-3.686 37.513 64.975 64.975 0 0 0 17.726 33.244 64.72 64.72 0 0 0 33.162 17.77 64.623 64.623 0 0 0 37.421-3.695 64.798 64.798 0 0 0 29.067-23.914 65.038 65.038 0 0 0 10.916-36.071 65.085 65.085 0 0 0-18.992-45.889 64.76 64.76 0 0 0-45.776-19.039Z"/>
    <path fill="#CFDEF3" d="M134.186 138.363c5.655-4.79 9.09-12.356 8.189-19.723-.901-7.366-6.48-14.137-13.717-15.702-7.236-1.564-15.486 2.766-17.684 9.853-1.21-13.663-2.604-27.898-9.85-39.533-6.561-10.536-17.925-18.074-30.241-19.423-12.317-1.349-25.284 3.745-32.965 13.49-7.681 9.745-9.562 23.912-4.182 35.1 3.963 8.242 11.264 14.376 18.914 19.366 24.406 15.92 54.681 21.299 83.489 17.049l-1.953-.477Z"/>
    <path fill="#fff" d="M50.097 57.862A199.96 199.96 0 0 1 77.93 85.57a200.915 200.915 0 0 1 31.35 52.518c.564 1.386-1.682 1.99-2.24.619a199.638 199.638 0 0 0-58.587-79.198c-1.16-.947.493-2.585 1.643-1.647Z"/>
    <path fill="#17275F" d="M53.555 288.706c3.82 0 6.917-3.104 6.917-6.934 0-3.829-3.096-6.934-6.917-6.934-3.82 0-6.917 3.105-6.917 6.934 0 3.83 3.097 6.934 6.917 6.934Z"/>
    <path fill="#DAE9FF" d="M168.203 286.815H80.169a5.023 5.023 0 0 1-3.557-1.477 5.05 5.05 0 0 1 0-7.132 5.027 5.027 0 0 1 3.557-1.477h88.034c1.335 0 2.614.532 3.557 1.477a5.049 5.049 0 0 1 0 7.132 5.02 5.02 0 0 1-3.557 1.477Z"/>
    <path fill="#5784F5" d="M140.9 286.876H79.806a5.086 5.086 0 0 1-3.6-1.495 5.11 5.11 0 0 1 0-7.218 5.086 5.086 0 0 1 3.6-1.495H140.9c1.35 0 2.645.538 3.6 1.495a5.11 5.11 0 0 1 0 7.218 5.086 5.086 0 0 1-3.6 1.495Z"/>
    <path fill="#17275F" d="M53.555 318.963c3.82 0 6.917-3.104 6.917-6.934 0-3.829-3.096-6.934-6.917-6.934-3.82 0-6.917 3.105-6.917 6.934 0 3.83 3.097 6.934 6.917 6.934Z"/>
    <path fill="#DAE9FF" d="M168.203 317.072H80.169a5.023 5.023 0 0 1-3.557-1.477 5.047 5.047 0 0 1 0-7.131 5.023 5.023 0 0 1 3.557-1.477h88.034a5.02 5.02 0 0 1 3.557 1.477 5.045 5.045 0 0 1 0 7.131 5.02 5.02 0 0 1-3.557 1.477Z"/>
    <path fill="#17275F" d="M53.555 349.221c3.82 0 6.917-3.104 6.917-6.934s-3.096-6.934-6.917-6.934c-3.82 0-6.917 3.104-6.917 6.934s3.097 6.934 6.917 6.934Z"/>
    <path fill="#DAE9FF" d="M168.203 347.33H80.169a5.023 5.023 0 0 1-3.557-1.477 5.05 5.05 0 0 1 0-7.132 5.023 5.023 0 0 1 3.557-1.477h88.034a5.02 5.02 0 0 1 3.557 1.477 5.049 5.049 0 0 1 0 7.132 5.02 5.02 0 0 1-3.557 1.477Z"/>
    <path fill="#5784F5" d="M120.778 317.133H79.806a5.085 5.085 0 0 1-3.6-1.494 5.113 5.113 0 0 1 0-7.218 5.086 5.086 0 0 1 3.6-1.495h40.972c1.35 0 2.645.538 3.6 1.495a5.112 5.112 0 0 1 0 7.218 5.085 5.085 0 0 1-3.6 1.494Zm36.471 30.258H79.806a5.086 5.086 0 0 1-3.6-1.495 5.111 5.111 0 0 1 0-7.218 5.086 5.086 0 0 1 3.6-1.495h77.443c1.35 0 2.645.538 3.6 1.495a5.11 5.11 0 0 1 0 7.218 5.086 5.086 0 0 1-3.6 1.495Z"/>
    <path fill="#3F3D56" d="M144.894 147.299h-8.643v-25.602a2.843 2.843 0 0 1 .83-2.005 2.826 2.826 0 0 1 2-.831h2.983c.75 0 1.469.3 2 .831.53.532.829 1.253.83 2.005v25.602Z"/>
    <path fill="#161B3D" d="M150.133 190.865H67.52l-.297-46.676a5.4 5.4 0 0 1 1.615-3.873l20.754-20.263a5.313 5.313 0 0 1 3.68-1.52l34.734-.318a5.377 5.377 0 0 1 4.141 1.91l.003.004 16.498 20.282a6.647 6.647 0 0 1 1.485 4.183v46.271Z"/>
    <path fill="#7398F6" d="M150.134 190.865h-44.396v-41.831c0-1.275.453-2.507 1.278-3.477l19.29-22.671a5.337 5.337 0 0 1 4.066-1.881h.02a5.321 5.321 0 0 1 4.073 1.912l14.417 17.205a5.378 5.378 0 0 1 1.252 3.446v47.297Z"/>
    <path fill="#fff" d="M131.301 174.798h-6.423a1.576 1.576 0 0 1-1.572-1.576v-5.398a1.576 1.576 0 0 1 1.572-1.576h6.423a1.576 1.576 0 0 1 1.572 1.576v5.398a1.576 1.576 0 0 1-1.572 1.576Zm0-13.834h-6.423a1.576 1.576 0 0 1-1.572-1.576v-5.273a1.578 1.578 0 0 1 1.572-1.576h6.423a1.574 1.574 0 0 1 1.572 1.576v5.273a1.576 1.576 0 0 1-1.572 1.576Zm-39.723 11.732h-6.423a1.579 1.579 0 0 1-1.572-1.575v-5.399a1.576 1.576 0 0 1 1.572-1.576h6.423a1.576 1.576 0 0 1 1.572 1.576v5.399a1.579 1.579 0 0 1-1.572 1.575Zm0-13.834h-6.423a1.58 1.58 0 0 1-1.572-1.576v-5.272a1.58 1.58 0 0 1 1.572-1.576h6.423a1.58 1.58 0 0 1 1.572 1.576v5.272a1.58 1.58 0 0 1-1.572 1.576Z"/>
    <path fill="#3F3D56" d="M166.121 191.411H53.749a.63.63 0 0 1 0-1.261h112.372a.63.63 0 0 1 0 1.261Z"/>
  </g>
  <defs>
    <clipPath id="a">
      <path fill="#fff" d="M0 0h219v439H0z"/>
    </clipPath>
  </defs>
</svg>
